<?xml version="1.0" encoding="iso-8859-1"?>
<!-- Generator: Adobe Illustrator 19.0.0, SVG Export Plug-In . SVG Version: 6.00 Build 0)  -->
<svg version="1.1" id="Layer_1" xmlns="http://www.w3.org/2000/svg" xmlns:xlink="http://www.w3.org/1999/xlink" x="0px" y="0px"
	 viewBox="0 0 511.999 511.999" style="enable-background:new 0 0 511.999 511.999;" xml:space="preserve">
<rect x="70.406" style="fill:#2BA5F7;" width="242.779" height="511.999"/>
<rect x="70.406" style="fill:#2197D8;" width="206.518" height="39.986"/>
<rect x="136.317" y="0" style="fill:#F95428;" width="242.779" height="511.999"/>
<rect x="198.814" y="0" style="fill:#F7B239;" width="242.779" height="511.999"/>
<g>
	<polygon style="fill:#F95428;" points="329.215,468.656 329.215,434.479 311.187,434.479 311.187,468.656 290.553,468.656 
		320.201,498.303 349.849,468.656 	"/>
	<circle style="fill:#F95428;" cx="262.514" cy="99.756" r="44.354"/>
</g>
<g>
	<rect x="232.455" y="225.953" style="fill:#2BA5F7;" width="69.709" height="69.709"/>
	<rect x="338.22" y="330.215" style="fill:#2BA5F7;" width="69.709" height="69.709"/>
</g>
<g>
	<rect x="326.213" y="72.689" style="fill:#4D4D4D;" width="88.939" height="14.422"/>
	<rect x="326.213" y="112.399" style="fill:#4D4D4D;" width="88.939" height="14.423"/>
	<rect x="326.213" y="234.318" style="fill:#4D4D4D;" width="88.939" height="14.423"/>
	<rect x="326.213" y="274.028" style="fill:#4D4D4D;" width="88.939" height="14.423"/>
</g>
<g>
	<polygon style="fill:#F95428;" points="334.297,174.188 327.498,167.389 318.999,175.887 310.501,167.389 303.702,174.188 
		312.2,182.686 303.702,191.185 310.501,197.984 318.999,189.485 327.498,197.984 334.297,191.185 325.798,182.686 	"/>
	<rect x="352.053" y="177.277" style="fill:#F95428;" width="61.296" height="10.817"/>
	<rect x="227.058" y="177.277" style="fill:#F95428;" width="61.296" height="10.817"/>
</g>
<g>
	<rect x="225.255" y="377.148" style="fill:#4D4D4D;" width="88.939" height="14.423"/>
	<rect x="225.255" y="337.426" style="fill:#4D4D4D;" width="88.939" height="14.423"/>
</g>
<polygon style="fill:#2197D8;" points="407.932,390.573 407.932,399.924 398.594,399.924 338.223,339.554 338.223,330.215 
	347.586,330.215 "/>
<rect x="136.317" y="0" style="fill:#E54728;" width="242.779" height="39.986"/>
<polygon style="fill:#2197D8;" points="302.167,286.311 302.167,295.661 292.829,295.661 232.458,235.291 232.458,225.953 
	241.821,225.953 "/>
<rect x="198.814" y="0" style="fill:#E09B2D;" width="242.779" height="39.986"/>
<g>
</g>
<g>
</g>
<g>
</g>
<g>
</g>
<g>
</g>
<g>
</g>
<g>
</g>
<g>
</g>
<g>
</g>
<g>
</g>
<g>
</g>
<g>
</g>
<g>
</g>
<g>
</g>
<g>
</g>
</svg>
